Coordinates
version=1
nRows=6
nColumns=34
inDegrees=yes

Units are S.I. units (second, meters, Newtons, ...)
If the header above contains a line with 'inDegrees', this indicates whether rotational values are in degrees (yes) or radians (no).

endheader
time	pelvis_tilt	pelvis_list	pelvis_rotation	pelvis_tx	pelvis_ty	pelvis_tz	hip_flexion_r	hip_adduction_r	hip_rotation_r	knee_angle_r	ankle_angle_r	subtalar_angle_r	mtp_angle_r	hip_flexion_l	hip_adduction_l	hip_rotation_l	knee_angle_l	ankle_angle_l	subtalar_angle_l	mtp_angle_l	lumbar_extension	lumbar_bending	lumbar_rotation	arm_flex_r	arm_add_r	arm_rot_r	elbow_flex_r	pro_sup_r	arm_flex_l	arm_add_l	arm_rot_l	elbow_flex_l	pro_sup_l
      7.45000000	     -7.25491518	      0.70086227	    187.81490401	      1.84685152	      1.01286541	     -0.54979872	     42.09154610	     -3.21852371	     -1.40017601	    114.53199229	      9.36122655	    -12.54599485	      0.00000000	     -2.45883943	      1.60879668	      3.36298501	     38.18704275	      5.11481054	    -21.81966988	      0.00000000	    -28.78136407	     -0.97317365	    -15.30136630	    -27.57073321	    -13.91770212	     -2.39179679	     97.47257045	     91.71602344	     18.21237924	    -26.33862108	     19.69508877	    116.13969607	     80.73415328
      7.45833330	     -6.40454620	      2.06649068	    186.68486751	      1.84764584	      1.01542449	     -0.54981992	     44.54375338	     -1.84210003	     -2.54185384	    109.14599433	     10.70445032	    -15.98365337	      0.00000000	     -5.30379272	     -0.24836931	      2.15496677	     36.87265537	      3.81688091	    -20.14860907	      0.00000000	    -27.17534671	      0.16668332	    -16.49463083	    -29.12780512	    -15.37886393	     -1.69112341	     99.67245528	     92.02056600	     17.22210610	    -26.36932244	     22.48835292	    120.36265671	     81.37155269
      7.46666670	     -5.37932336	      3.41492799	    185.50719681	      1.84713388	      1.01494465	     -0.55003694	     46.93453977	     -0.38816725	     -3.71312986	    103.70903191	     12.58885689	    -18.51986062	      0.00000000	     -8.15221483	     -1.94876146	      0.90124715	     35.24212356	      1.15102497	    -18.03478875	      0.00000000	    -25.05899404	      1.36341510	    -17.59015285	    -30.70179462	    -16.70229668	     -1.42891294	    101.90064828	     92.19749394	     16.48812159	    -26.60646223	     24.91437684	    122.97606310	     81.90264477
      7.47500000	     -4.15939171	      4.18451714	    184.62924633	      1.84649737	      1.01560295	     -0.55036417	     49.27900710	      0.55892145	     -4.50774534	     98.09304084	     13.70583759	    -20.43622704	      0.00000000	    -10.52912740	     -3.02026039	     -0.09756186	     33.91298829	     -1.14545238	    -15.69534992	      0.00000000	    -23.02111352	      2.11240447	    -18.89722541	    -32.50549526	    -18.06656923	     -1.36859242	    104.51907503	     92.35825874	     16.32521992	    -27.08002702	     26.97854151	    124.71293343	     82.47105859
      7.48333330	     -2.99171236	      4.56920670	    183.99942354	      1.84551192	      1.02094553	     -0.55061885	     50.97690976	      1.29837791	     -5.02230923	     91.55939245	     14.08994120	    -21.50117874	      0.00000000	    -12.75156228	     -3.70424750	     -0.93166633	     32.49679583	     -4.87038521	    -13.29095696	      0.00000000	    -21.09403435	      2.46317742	    -20.21619475	    -34.15120202	    -19.08964818	     -1.64448492	    106.67315312	     92.47778714	     16.30384432	    -27.71900888	     28.61617348	    125.47288732	     83.01028345
      7.49166670	     -1.89681120	      4.33769246	    183.78525804	      1.84420803	      1.02680555	     -0.55083320	     51.97571431	      1.57636572	     -4.92855611	     84.19472588	     12.71483776	    -21.90575890	      0.00000000	    -14.69341824	     -3.86248958	     -1.57907773	     31.12363097	     -9.59550990	    -11.37672348	      0.00000000	    -19.30732640	      2.17133770	    -21.42344906	    -35.69427816	    -19.59836966	     -2.06846636	    108.35881182	     92.64837587	     16.76268581	    -28.44166501	     30.43836466	    125.00681751	     83.95855565
